<?xml version="1.0" encoding="UTF-8" standalone="no"?>
<svg width="1100px" height="1100px" viewBox="0 0 1100 1100" version="1.1" xmlns="http://www.w3.org/2000/svg" xmlns:xlink="http://www.w3.org/1999/xlink" xmlns:sketch="http://www.bohemiancoding.com/sketch/ns">
    <!-- Generator: Sketch 3.3.2 (12043) - http://www.bohemiancoding.com/sketch -->
    <title>green</title>
    <desc>Created with Sketch.</desc>
    <defs>
        <path d="M347.246675,810.574693 L369.543301,680.56584 L369.543301,680.56584 L632.707617,541.421845 C652.23628,531.096372 684.034138,530.837976 703.729877,540.844831 L960.1906,671.145365 C960.313726,673.206681 960.53935,675.217754 960.872817,677.162158 L983.595139,809.653148 L701.955969,661.454824 C682.397392,651.163116 650.703176,651.154481 631.149078,661.427184 L347.246675,810.574693 Z M330.547122,907.947713 L329.04076,916.731125 C317.840132,982.040594 356.313582,1009.99648 414.976919,979.153079 L630.092483,866.051841 C649.652882,855.767577 681.352385,855.770419 700.907379,866.051842 L916.022952,979.153085 C974.685296,1009.99597 1013.16122,982.049239 1001.95911,916.731154 L998.652372,897.449974 L703.729877,747.608088 C684.034138,737.601233 652.23628,737.859628 632.707617,748.185102 L330.547122,907.947713 Z M343.897408,605.570966 L174.211863,440.156353 C126.752219,393.891254 141.448963,348.659301 207.035472,339.128319 L447.542049,304.178085 C469.405203,301.000948 495.052313,282.369383 504.832511,262.551085 L612.397815,44.5840056 C641.725315,-14.8443531 689.278475,-14.8364918 718.602119,44.5840322 L826.167488,262.551166 C835.944989,282.363991 861.588762,301.000168 883.457958,304.178194 L1123.96452,339.128548 C1189.55214,348.659725 1204.24694,393.8923 1156.78808,440.156579 L987.659167,605.02838 L701.955969,454.691568 C682.397392,444.399859 650.703176,444.391225 631.149078,454.663927 L343.897408,605.570966 L343.897408,605.570966 Z" id="path-1"></path>
    </defs>
    <g id="Page-1" stroke="none" stroke-width="1" fill="none" fill-rule="evenodd" sketch:type="MSPage">
        <g id="green" sketch:type="MSArtboardGroup">
            <g id="the-star" sketch:type="MSLayerGroup" transform="translate(781.408191, 503.034738) rotate(-108.000000) translate(-781.408191, -503.034738) translate(188.908191, -262.465262)">
                <g transform="translate(-0.140491, 0.111765)">
                    <mask id="mask-2" sketch:name="Star 1" fill="white">
                        <use xlink:href="#path-1"></use>
                    </mask>
                    <use id="Star-1" fill="#729E73" sketch:type="MSShapeGroup" xlink:href="#path-1"></use>
                    <path d="M662.548109,693.645955 L1266.20281,1056.12201 L1268.64816,1196.21432 L725.765382,881.401114 C692.322949,862.008125 638.332822,862.416438 605.193854,882.301824 L-141.804022,1330.54578 L-144.52228,1174.81884 L662.548109,693.645955 Z" id="tail2" fill="#7DAE7E" sketch:type="MSShapeGroup" mask="url(#mask-2)"></path>
                    <path d="M674.88087,520.664649 L1266.15523,832.270766 L1268.26568,953.176709 L677.180364,652.400718 L-115.275185,1072.01281 L-117.621168,937.613487 L674.88087,520.664649 Z" id="tail1" fill="#77A678" sketch:type="MSShapeGroup" mask="url(#mask-2)"></path>
                </g>
            </g>
        </g>
    </g>
</svg>