<?xml version="1.0" encoding="UTF-8" standalone="no"?>
<svg width="1203px" height="1232px" viewBox="0 0 1203 1232" version="1.1" xmlns="http://www.w3.org/2000/svg">
    <g id="Page-1" stroke="none" stroke-width="1" fill="none" fill-rule="evenodd">
        <g id="logo" transform="translate(601.232051, 615.998960) rotate(252.000000) translate(-601.232051, -615.998960) translate(107.732051, 144.498960)" fill="#FFFFFF">
            <path d="M174.829812,863.23671 L173.398671,871.585646 C162.757352,933.664549 199.309614,960.237585 255.043573,930.919866 L459.417254,823.413238 C478.000897,813.637691 508.117472,813.640392 526.695979,823.413239 L731.069669,930.919872 C786.802685,960.237095 823.357299,933.672766 812.714572,871.585673 L809.572955,853.258247 L529.377535,710.828365 C510.665311,701.316504 480.455292,701.562118 461.9018,711.376837 L174.829812,863.23671 L174.829812,863.23671 L174.829812,863.23671 L174.829812,863.23671 Z" id="Path" fill-opacity="0.804772418"></path>
            <path d="M190.910437,770.478843 L212.108663,647.071663 L212.108663,647.071663 L462.308703,514.993209 C480.875325,505.19205 511.106723,504.946775 529.83219,514.445496 L773.658877,638.129546 C773.775937,640.086192 773.990446,641.995145 774.307486,643.840815 L795.910437,769.604093 L528.145671,628.931078 C509.550609,619.161968 479.417746,619.153773 460.826942,628.904841 L190.910437,770.478843 L190.910437,770.478843 L190.910437,770.478843 L190.910437,770.478843 Z" id="Path" fill-opacity="0.9"></path>
            <path d="M188.056117,575.554975 L26.911082,418.486899 C-18.1598516,374.556258 -4.20281507,331.606631 58.0826336,322.556565 L286.484179,289.369861 C307.246929,286.353037 331.603184,268.661588 340.891131,249.843287 L443.042523,42.8744522 C470.893929,-13.5552536 516.053672,-13.547789 543.901417,42.8744775 L646.052871,249.843364 C655.338257,268.656468 679.691343,286.352296 700.459831,289.369965 L928.861359,322.556783 C991.147861,331.607034 1005.10305,374.557251 960.03287,418.487113 L799.416448,575.039767 L528.093091,432.288691 C509.518925,422.516285 479.419922,422.508086 460.850009,432.262446 L188.056117,575.554975 L188.056117,575.554975 L188.056117,575.554975 L188.056117,575.554975 Z" id="path-1"></path>
        </g>
    </g>
</svg>
