<?xml version="1.0" encoding="UTF-8" standalone="no"?>
<svg width="300px" height="300px" viewBox="0 0 300 300" version="1.1" xmlns="http://www.w3.org/2000/svg"
     xmlns:sketch="http://www.bohemiancoding.com/sketch/ns">
    <!-- Generator: Sketch 3.2.2 (9983) - http://www.bohemiancoding.com/sketch -->
    <title>Rectangle 1 + Star 1</title>
    <desc>Created with Sketch.</desc>
    <defs></defs>
    <g id="Page-1" stroke="none" stroke-width="1" fill="none" fill-rule="evenodd" sketch:type="MSPage">
        <g id="Rectangle-1-+-Star-1" sketch:type="MSLayerGroup" transform="translate(-8.000000, -6.000000)">
            <rect id="Rectangle-1" fill="#EBEBEB" sketch:type="MSShapeGroup" x="8" y="6" width="300" height="300"></rect>
            <g id="Star-1" fill="#7F8C8D" sketch:type="MSShapeGroup">
                <g id="Page-1">
                    <g id="1024">
                        <g id="the-star" transform="translate(146.762132, 150.233084) rotate(252.000000) translate(-146.762132, -150.233084) translate(26.762132, 35.733084)">
                            <g id="Group" transform="translate(0.911387, 0.971208)">
                                <g id="Star-1" transform="translate(0.000000, 0.000000)">
                                    <path d="M41.2931063,208.263831 C38.8612618,224.406707 48.6182121,231.207482 63.3744143,223.448127 L109.635447,199.122371 C114.635015,196.493413 122.736807,196.494238 127.734808,199.122371 L173.995842,223.448129 C188.984076,231.329495 198.815499,224.186304 195.95282,207.492251 L195.693744,205.981416 L128.268513,171.731861 C123.236017,169.175537 115.110372,169.242051 110.119399,171.880413 L41.2931066,208.263829 L41.2931063,208.263831 L41.2931063,208.263831 Z M45.1434607,185.763481 L50.2534481,155.96397 C50.2720388,155.855556 50.2893167,155.746329 50.3052959,155.636333 L50.3052959,155.636333 L110.079468,124.038109 C115.070442,121.399747 123.196086,121.333233 128.228582,123.889557 L186.915888,153.700566 C186.92732,154.482569 186.992891,155.241359 187.116806,155.963986 L192.214421,185.691334 L127.853032,151.831647 C122.858371,149.204021 114.755775,149.200242 109.758657,151.824933 L45.1434607,185.763481 L45.1434607,185.763481 Z M44.2608194,138.363804 L7.23352695,102.263863 C-4.89297814,90.4410667 -1.13391179,78.8817227 15.6243436,76.4461144 L67.3417712,68.9296163 C72.9297071,68.1174779 79.4846799,63.3550734 81.9819952,58.2939424 L105.114976,11.4119774 C112.609566,-3.7767745 124.759791,-3.77861649 132.255296,11.4119842 L155.38829,58.2939608 C157.885928,63.3557441 164.438828,68.1172461 170.028516,68.929642 L221.74594,76.446166 C238.506564,78.8821271 242.264729,90.4396901 230.136746,102.263913 L193.124716,138.348932 L127.813101,103.989343 C122.818441,101.361717 114.715844,101.357938 109.718726,103.982629 L44.2608194,138.363804 L44.2608194,138.363804 Z" id="path-1"></path>
                                </g>
                            </g>
                        </g>
                    </g>
                </g>
            </g>
        </g>
    </g>
</svg>
