<?xml version="1.0" encoding="UTF-8" standalone="no"?>
<svg width="1200px" height="785px" viewBox="0 0 1200 785" version="1.1" xmlns="http://www.w3.org/2000/svg"
     xmlns:sketch="http://www.bohemiancoding.com/sketch/ns">
    <!-- Generator: Sketch 3.2.2 (9983) - http://www.bohemiancoding.com/sketch -->
    <title>Rectangle 1 + Star 1</title>
    <desc>Created with Sketch.</desc>
    <defs>
        <filter x="-50%" y="-50%" width="200%" height="200%" filterUnits="objectBoundingBox" id="filter-1">
            <feGaussianBlur stdDeviation="8" in="SourceGraphic" result="blur"></feGaussianBlur>
        </filter>
        <filter x="-50%" y="-50%" width="200%" height="200%" filterUnits="objectBoundingBox" id="filter-2">
            <feGaussianBlur stdDeviation="20.0712316" in="SourceGraphic" result="blur"></feGaussianBlur>
        </filter>
    </defs>
    <g id="Page-1" stroke="none" stroke-width="1" fill="none" fill-rule="evenodd" sketch:type="MSPage">
        <g id="Rectangle-1-+-Star-1" sketch:type="MSLayerGroup" transform="translate(0.000000, 43.000000)">
            <rect id="Rectangle-1" fill="#F5F5F5" sketch:type="MSShapeGroup" x="0" y="0" width="1200" height="700"></rect>
            <g id="Star-1" transform="translate(107.000000, 147.000000)" filter="url(#filter-1)" fill-opacity="0.493744339" fill="#7F8C8D" sketch:type="MSShapeGroup">
                <g id="Page-1">
                    <g id="1024">
                        <g id="the-star" transform="translate(140.735590, 143.452935) rotate(252.000000) translate(-140.735590, -143.452935) translate(25.735590, 33.452935)">
                            <g id="Group" transform="translate(0.507017, 0.540639)">
                                <g id="Star-1" transform="translate(0.000000, 0.000000)">
                                    <path d="M39.6425335,200.30578 C37.3050017,215.832434 46.6835542,222.373603 60.8674757,214.910446 L105.334395,191.513277 C110.140068,188.984675 117.927653,188.985468 122.73182,191.513277 L167.198741,214.910448 C181.605696,222.490958 191.055833,215.620444 188.304175,199.563654 L188.055147,198.110492 L123.244827,165.168346 C118.407503,162.709604 110.59699,162.773579 105.799579,165.311227 L39.6425337,200.305778 L39.6425335,200.30578 L39.6425335,200.30578 Z M43.3435619,178.664336 L48.2553719,150.002363 C48.2732416,149.898087 48.2898494,149.79303 48.3052089,149.687233 L48.3052089,149.687233 L105.761196,119.295208 C110.558608,116.757561 118.369121,116.693586 123.206444,119.152327 L179.617717,147.82536 C179.628705,148.577511 179.691733,149.307336 179.810843,150.002378 L184.71076,178.594944 L122.845459,146.027783 C118.044503,143.500462 110.256145,143.496827 105.452827,146.021325 L43.3435619,178.664336 L43.3435619,178.664336 Z M42.4951516,133.074048 L6.90386573,98.3521512 C-4.7523446,86.9806667 -1.1390638,75.8625778 14.9692665,73.519944 L64.6809691,66.2903734 C70.0521915,65.5092368 76.3529469,60.9286276 78.7534103,56.0606953 L100.989239,10.9683565 C108.193171,-3.64059481 119.872181,-3.64236649 127.076993,10.9683631 L149.312834,56.060713 C151.713608,60.9292727 158.012371,65.5090138 163.385277,66.2903981 L213.096976,73.5199937 C229.207583,75.8629668 232.819998,86.9793427 221.162367,98.3521993 L185.585752,133.059744 L122.807077,100.011764 C118.006121,97.4844428 110.217762,97.4808081 105.414445,100.005307 L42.4951516,133.074048 L42.4951516,133.074048 Z" id="path-1"></path>
                                </g>
                            </g>
                        </g>
                    </g>
                </g>
            </g>
            <path d="M1007.78736,470.260561 C1057.49913,462.891824 1068.74416,428.093589 1032.62762,391.693377 L919.401449,277.577877 C907.164755,265.245075 899.879659,241.42776 903.121157,224.371777 L933.124164,66.5031756 C942.844916,15.3549128 912.972171,-7.12221256 866.400145,16.3063448 L862.185311,18.4266605 L822.003922,247.435592 C819.004857,264.5284 826.509653,288.355277 838.766301,300.654355 L1007.78736,470.260562 L1007.78736,470.260561 L1007.78736,470.260561 Z M938.083362,479.176731 L845.757726,490.954253 C845.421835,490.997101 845.084731,491.044539 844.746532,491.096487 L844.746532,491.096487 L697.955335,343.797101 C685.698686,331.498019 678.193891,307.671146 681.192956,290.578338 L716.167069,91.2476557 C718.458989,90.5107814 720.633872,89.6356323 722.649812,88.6214932 L805.581309,46.9019134 L763.791772,266.553554 C760.548763,283.599263 767.825886,307.421599 780.047814,319.751036 L938.083362,479.176731 L938.083362,479.176731 Z M799.333496,524.398703 L726.361797,665.71189 C702.463432,711.992214 665.051668,711.337315 642.807307,664.264001 L574.159283,518.991676 C566.74204,503.295373 546.825439,488.308841 529.679236,485.519122 L370.851563,459.677567 C319.394801,451.305457 308.460307,415.589494 346.43899,379.894049 L463.650666,269.729018 C476.305851,257.834649 484.429324,234.289206 481.793104,217.126782 L457.40203,58.3350271 C449.497352,6.87366847 480.142158,-14.5679908 525.861523,10.4505289 L665.387322,86.8017408 L622.980806,309.6963 C619.737796,326.742006 627.01492,350.564344 639.236847,362.893782 L799.333496,524.398703 L799.333496,524.398703 Z" id="path-1-2" fill-opacity="0.2" fill="#7F8C8D" filter="url(#filter-2)" sketch:type="MSShapeGroup"></path>
        </g>
    </g>
</svg>
