<?xml version="1.0" encoding="UTF-8"?>
<svg width="119px" height="29px" viewBox="0 0 119 29" version="1.1" xmlns="http://www.w3.org/2000/svg">
    <!-- Generator: Sketch 40.3 (33839) - http://www.bohemiancoding.com/sketch -->
    <title>Desktop-HD</title>
    <desc>Created with Sketch.</desc>
    <defs></defs>
    <g id="Page-1" stroke="none" stroke-width="1" fill="none" fill-rule="evenodd">
        <g id="Desktop-HD" transform="translate(-5.000000, -5.000000)" fill="#FFFFFF">
            <g id="logo">
                <g id="the-star" transform="translate(18.120782, 18.740733) rotate(251.000000) translate(-18.120782, -18.740733) translate(3.120782, 4.740733)">
                    <path d="M5.19271397,25.5379952 L5.15032854,25.7850477 C4.83516971,27.6220179 5.91772041,28.4083378 7.5683662,27.5408003 L13.6212029,24.3595831 C14.1715857,24.0703159 15.0635338,24.0703958 15.6137644,24.3595831 L21.6666014,27.5408004 C23.3172192,28.4083232 24.3998396,27.622261 24.0846391,25.7850485 L23.9915953,25.2427235 L15.6931828,21.0280961 C15.1389918,20.7466316 14.2442763,20.7538996 13.6947865,21.0443259 L5.19271397,25.5379952 L5.19271397,25.5379952 L5.19271397,25.5379952 L5.19271397,25.5379952 Z" id="Path" fill-opacity="0.804772418"></path>
                    <path d="M5.66259939,22.7991682 L6.28997301,19.1423877 L6.28997301,19.1423877 L13.6947865,15.2286616 C14.2442763,14.9382353 15.1389918,14.9309674 15.6931828,15.2124319 L22.9093732,18.8774165 C22.9128377,18.9353954 22.9191862,18.9919612 22.9285691,19.0466518 L23.5679209,22.7732477 L15.6432693,18.604849 C15.0929378,18.3153724 14.2011384,18.3151296 13.6509329,18.6040716 L5.66259939,22.7991682 L5.66259939,22.7991682 L5.66259939,22.7991682 L5.66259939,22.7991682 Z" id="Path" fill-opacity="0.9"></path>
                    <path d="M5.56835903,17.0329945 L0.793814242,12.3803504 C-0.541586447,11.0790443 -0.128055271,9.8067977 1.71739199,9.5387182 L8.48467097,8.55566721 C9.09984772,8.46630336 9.82149598,7.94225024 10.0966873,7.38481772 L13.1233173,1.25402168 C13.9485229,-0.41752957 15.2865549,-0.417308453 16.111652,1.25402243 L19.1382839,7.38481998 C19.4133993,7.94209858 20.1349537,8.46628142 20.7503004,8.55567028 L27.5175789,9.53872466 C29.3630574,9.80680963 29.776534,11.0790738 28.4411554,12.3803568 L23.6822729,17.0177331 L15.6432693,12.7891848 C15.0929378,12.4997082 14.2011384,12.4994653 13.6509329,12.7884073 L5.56835903,17.0329945 L5.56835903,17.0329945 L5.56835903,17.0329945 L5.56835903,17.0329945 Z" id="path-1"></path>
                </g>
                <g id="恋绘-星祈" transform="translate(40.000000, 10.000000)">
                    <path d="M7.68,0.5 C8.5733378,0.6733342 9.2166647,0.9033319 9.61,1.19 C10.0033353,1.4766681 10.2,1.8666642 10.2,2.36 C10.2,2.6533348 10.1200008,2.8799992 9.96,3.04 C9.7999992,3.2000008 9.5800014,3.28 9.3,3.28 C8.8733312,3.28 8.626667,3.0533356 8.56,2.6 C8.4399994,1.8533296 8.0733364,1.246669 7.46,0.78 L7.68,0.5 Z M6.42,4.16 L2.66,4.16 C2.1133306,4.16 1.673335,4.226666 1.34,4.36 L0.64,3.48 C1.1200024,3.5600004 1.6466638,3.6 2.22,3.6 L15.34,3.6 L16.5,2.14 L17.84,3.8 C17.9333338,3.9200006 17.98,4.0099997 17.98,4.07 C17.98,4.1300003 17.9000008,4.16 17.74,4.16 L11.88,4.16 L11.88,8.6 C11.88,9.0533356 11.8866666,9.413332 11.9,9.68 L11.94,10.36 C11.94,10.5733344 11.7433353,10.746666 11.35,10.88 C10.9566647,11.013334 10.7133338,11.08 10.62,11.08 C10.5266662,11.08 10.48,10.9600012 10.48,10.72 L10.52,9.8 C10.5333334,9.4133314 10.54,9.020002 10.54,8.62 L10.54,4.16 L7.78,4.16 L7.78,7.92 C7.78,8.7333374 7.7866666,9.3133316 7.8,9.66 L7.82,10.46 C7.82,10.660001 7.6333352,10.8399992 7.26,11 C6.8866648,11.1600008 6.6466672,11.24 6.54,11.24 C6.4333328,11.24 6.38,11.1500009 6.38,10.97 C6.38,10.7899991 6.3866666,10.5566681 6.4,10.27 C6.4133334,9.9833319 6.42,9.5133366 6.42,8.86 L6.42,4.16 Z M5.42,6.14 C5.553334,6.2466672 5.62,6.3299997 5.62,6.39 C5.62,6.4500003 5.520001,6.4933332 5.32,6.52 C5.1599992,6.5466668 4.9533346,6.7466648 4.7,7.12 C3.0066582,9.453345 1.5133398,11.1466614 0.22,12.2 L0.02,11.84 C1.820009,9.639989 3.1466624,7.3866782 4,5.08 L5.42,6.14 Z M13,5.72 C14.9600098,6.4800038 16.2299971,7.1633303 16.81,7.77 C17.3900029,8.3766697 17.68,8.9266642 17.68,9.42 C17.68,9.6466678 17.6033341,9.8866654 17.45,10.14 C17.2966659,10.3933346 17.120001,10.52 16.92,10.52 C16.5599982,10.52 16.2600012,10.286669 16.02,9.82 C15.4599972,8.819995 14.9966685,8.0933356 14.63,7.64 C14.2633315,7.1866644 13.6733374,6.6333366 12.86,5.98 L13,5.72 Z M7.98,11.26 C8.7666706,11.7533358 9.3799978,12.2399976 9.82,12.72 C10.2600022,13.2000024 10.48,13.5999984 10.48,13.92 C10.48,14.2400016 10.3700011,14.5233321 10.15,14.77 C9.9299989,15.0166679 9.7133344,15.14 9.5,15.14 C9.0866646,15.14 8.8733334,14.8200032 8.86,14.18 C8.8333332,13.6066638 8.7366675,13.1300019 8.57,12.75 C8.4033325,12.3699981 8.153335,11.946669 7.82,11.48 L7.98,11.26 Z M13.42,13.7 C13.3933332,14.7400052 13.4199996,15.5433305 13.5,16.11 C13.5800004,16.6766695 13.7599986,17.0333326 14.04,17.18 C14.2000008,17.246667 14.28,17.3233329 14.28,17.41 C14.28,17.4966671 14.2633335,17.5699997 14.23,17.63 C14.1966665,17.6900003 14.0000018,17.8466654 13.64,18.1 C13.2799982,18.3533346 12.9600014,18.5099997 12.68,18.57 C12.3999986,18.6300003 11.9866694,18.6733332 11.44,18.7 C10.8933306,18.7266668 10.3333362,18.74 9.76,18.74 C7.5199888,18.74 6.1400026,18.640001 5.62,18.44 C5.0999974,18.239999 4.84,17.7933368 4.84,17.1 L4.84,13.76 C4.84,12.959996 4.8133336,12.3066692 4.76,11.8 L6.54,12.74 C6.7800012,12.8600006 6.9,12.9566663 6.9,13.03 C6.9,13.1033337 6.8133342,13.1799996 6.64,13.26 L6.14,13.5 L6.14,16.76 C6.14,17.0000012 6.1833329,17.1499997 6.27,17.21 C6.3566671,17.2700003 6.7299967,17.3199998 7.39,17.36 C8.0500033,17.4000002 8.7399964,17.42 9.46,17.42 C11.0466746,17.42 11.9699987,17.2966679 12.23,17.05 C12.4900013,16.8033321 12.7799984,15.6733434 13.1,13.66 L13.42,13.7 Z M13.74,12.28 C15.0866734,12.9200032 16.0466638,13.4499979 16.62,13.87 C17.1933362,14.2900021 17.48,14.83333 17.48,15.5 C17.48,15.8600018 17.4000008,16.1699987 17.24,16.43 C17.0799992,16.6900013 16.9066676,16.82 16.72,16.82 C16.3333314,16.82 16.0600008,16.5666692 15.9,16.06 C15.5266648,14.7399934 14.740006,13.5666718 13.54,12.54 L13.74,12.28 Z M3.18,12.88 C3.0333326,14.680009 2.7833351,15.9033301 2.43,16.55 C2.0766649,17.1966699 1.633336,17.52 1.1,17.52 C0.8466654,17.52 0.6466674,17.4333342 0.5,17.26 C0.3533326,17.0866658 0.28,16.8900011 0.28,16.67 C0.28,16.4499989 0.3999988,16.240001 0.64,16.04 C1.3333368,15.4133302 1.8266652,14.8833355 2.12,14.45 C2.4133348,14.0166645 2.6733322,13.4800032 2.9,12.84 L3.18,12.88 Z M31.7,2.74 C30.8733292,4.4600086 29.9866714,5.919994 29.04,7.12 C28.0933286,8.320006 26.9266736,9.4666612 25.54,10.56 L25.34,10.34 C26.7933406,8.6866584 27.9033295,7.1833401 28.67,5.83 C29.4366705,4.4766599 30.1333302,2.7866768 30.76,0.76 L32.48,1.6 C32.6400008,1.666667 32.72,1.7599994 32.72,1.88 C32.72,2.0000006 32.6066678,2.093333 32.38,2.16 C32.313333,2.1866668 32.2200006,2.2266664 32.1,2.28 C33.5133404,5.3200152 35.6466524,7.1999964 38.5,7.92 L38.48,8.32 C37.6533292,8.32 37.106668,8.5399978 36.84,8.98 C36.773333,9.0866672 36.6866672,9.14 36.58,9.14 C36.2999986,9.14 35.5966723,8.5600058 34.47,7.4 C33.3433277,6.2399942 32.4200036,4.6866764 31.7,2.74 L31.7,2.74 Z M23.7,8.4 C22.0733252,8.733335 21.0666686,9.0133322 20.68,9.24 C20.5866662,9.306667 20.5033337,9.34 20.43,9.34 C20.3566663,9.34 20.286667,9.2933338 20.22,9.2 L19.58,8.04 C19.9266684,7.9466662 20.199999,7.8100009 20.4,7.63 C20.600001,7.4499991 20.7966657,7.1966683 20.99,6.87 C21.1833343,6.5433317 21.5399974,5.8700051 22.06,4.85 C22.5800026,3.8299949 22.9499989,3.0666692 23.17,2.56 C23.3900011,2.0533308 23.5733326,1.5266694 23.72,0.98 L25.18,2.06 C25.3400008,2.1666672 25.42,2.253333 25.42,2.32 C25.42,2.386667 25.3400008,2.4466664 25.18,2.5 C24.8733318,2.6200006 24.6133344,2.846665 24.4,3.18 C23.1599938,5.0866762 22.0533382,6.6599938 21.08,7.9 L24.08,7.8 C24.813337,6.599994 25.413331,5.4466722 25.88,4.34 L27.32,5.44 C27.4400006,5.5466672 27.5,5.6499995 27.5,5.75 C27.5,5.8500005 27.4200008,5.9066666 27.26,5.92 C27.0999992,5.9333334 26.9033345,6.0366657 26.67,6.23 C26.4366655,6.4233343 26.2266676,6.6666652 26.04,6.96 C24.9999948,8.5066744 23.646675,10.2933232 21.98,12.32 L25.74,12.04 L25.78,12.54 C23.2866542,13.0600026 21.70667,13.5066648 21.04,13.88 C20.973333,13.9333336 20.9100003,13.96 20.85,13.96 C20.7899997,13.96 20.7333336,13.9000006 20.68,13.78 L20.08,12.64 C20.5600024,12.573333 20.9733316,12.3366687 21.32,11.93 C21.6666684,11.5233313 22.4599938,10.3466764 23.7,8.4 L23.7,8.4 Z M29.52,8.62 L32.56,8.62 L33.58,7.38 L34.8,8.84 C34.8800004,8.9333338 34.92,9.013333 34.92,9.08 C34.92,9.146667 34.8333342,9.18 34.66,9.18 L29.94,9.18 C29.406664,9.18 28.9533352,9.2533326 28.58,9.4 L27.86,8.52 C28.3533358,8.586667 28.9066636,8.62 29.52,8.62 L29.52,8.62 Z M29.88,12.46 L28.06,12.46 C27.5399974,12.46 27.0866686,12.5333326 26.7,12.68 L25.98,11.8 C26.4866692,11.866667 27.039997,11.9 27.64,11.9 L34.72,11.9 L35.78,10.6 L37.06,12.12 C37.1400004,12.2133338 37.18,12.293333 37.18,12.36 C37.18,12.426667 37.0866676,12.46 36.9,12.46 L31.84,12.46 C31.5866654,12.7800016 31.1400032,13.3533292 30.5,14.18 C29.8599968,15.0066708 28.9800056,16.019994 27.86,17.22 L34.34,16.76 C33.9266646,15.959996 33.3800034,15.1400042 32.7,14.3 L32.86,14.02 C33.9800056,14.6733366 34.8533302,15.3533298 35.48,16.06 C36.1066698,16.7666702 36.42,17.319998 36.42,17.72 C36.42,18.120002 36.3500007,18.4433321 36.21,18.69 C36.0699993,18.9366679 35.8933344,19.06 35.68,19.06 C35.3733318,19.06 35.1600006,18.8566687 35.04,18.45 C34.9199994,18.0433313 34.7666676,17.640002 34.58,17.24 L29.98,18.1 C28.3266584,18.4066682 27.3733346,18.6066662 27.12,18.7 C26.8666654,18.7933338 26.7033337,18.84 26.63,18.84 C26.5566663,18.84 26.486667,18.7800006 26.42,18.66 L25.78,17.26 C26.3400028,17.2466666 26.7166657,17.1933338 26.91,17.1 C27.1033343,17.0066662 27.333332,16.760002 27.6,16.36 L28.8,14.5 C29.333336,13.6466624 29.6933324,12.9666692 29.88,12.46 L29.88,12.46 Z M26.9,14.96 L22.88,16.86 C22.1199962,17.2200018 21.5900015,17.499999 21.29,17.7 C20.9899985,17.900001 20.806667,18 20.74,18 C20.673333,18 20.606667,17.933334 20.54,17.8 L19.74,16.42 L26.8,14.7 L26.9,14.96 Z M50.14,1.98 L58.48,1.98 L59.36,0.88 L60.64,2.12 C60.7333338,2.2133338 60.78,2.293333 60.78,2.36 C60.78,2.426667 60.7200006,2.5133328 60.6,2.62 L60.12,2.96 L60.12,5.6 C60.12,6.0400022 60.1333332,6.459998 60.16,6.86 L60.22,7.9 C60.22,8.0866676 60.1700005,8.2199996 60.07,8.3 C59.9699995,8.3800004 59.7666682,8.4699995 59.46,8.57 C59.1533318,8.6700005 58.9400006,8.72 58.82,8.72 C58.6999994,8.72 58.64,8.6400008 58.64,8.48 L58.64,7.82 L49.74,7.82 C49.7666668,8.0733346 49.5866686,8.2766659 49.2,8.43 C48.8133314,8.5833341 48.553334,8.66 48.42,8.66 C48.286666,8.66 48.22,8.5466678 48.22,8.32 L48.28,7.26 C48.2933334,6.859998 48.3,6.2200044 48.3,5.34 L48.3,2.78 C48.3,2.3266644 48.2800002,1.7066706 48.24,0.92 L50.14,1.98 Z M58.64,4.56 L58.64,2.54 L49.74,2.54 L49.74,4.56 L58.64,4.56 Z M58.64,7.26 L58.64,5.12 L49.74,5.12 L49.74,7.26 L58.64,7.26 Z M49.32,11.54 C48.3733286,13.073341 47.1533408,14.5266598 45.66,15.9 L45.3,15.68 C47.1133424,13.3999886 48.2999972,11.1400112 48.86,8.9 L50.56,9.6 C50.693334,9.6533336 50.76,9.713333 50.76,9.78 C50.76,9.846667 50.6666676,9.913333 50.48,9.98 C50.2933324,10.046667 50.0200018,10.379997 49.66,10.98 L53.5,10.98 C53.5,10.0599954 53.4733336,9.1266714 53.42,8.18 L55.54,8.82 C55.6866674,8.8600002 55.76,8.9233329 55.76,9.01 C55.76,9.0966671 55.6866674,9.1799996 55.54,9.26 L55.02,9.56 L55.02,10.98 L59.24,10.98 L60.42,9.54 L61.8,11.18 C61.866667,11.2866672 61.9,11.373333 61.9,11.44 C61.9,11.506667 61.8200008,11.54 61.66,11.54 L55.02,11.54 L55.02,14.2 L58.16,14.2 L59.26,12.88 L60.54,14.4 C60.6333338,14.5066672 60.68,14.593333 60.68,14.66 C60.68,14.726667 60.5866676,14.76 60.4,14.76 L55.02,14.76 L55.02,17.66 L60.48,17.66 L61.78,16.12 L63.28,17.88 C63.3600004,17.9866672 63.4,18.073333 63.4,18.14 C63.4,18.206667 63.3066676,18.24 63.12,18.24 L47.08,18.24 C46.5066638,18.24 46.0466684,18.306666 45.7,18.44 L44.98,17.56 C45.4866692,17.626667 46.039997,17.66 46.64,17.66 L53.5,17.66 L53.5,14.76 L50.08,14.76 C49.5199972,14.76 49.0666684,14.826666 48.72,14.96 L47.98,14.08 C48.4866692,14.1600004 49.039997,14.2 49.64,14.2 L53.5,14.2 L53.5,11.54 L49.32,11.54 Z M67.54,0.32 C68.6200054,0.786669 69.3299983,1.1633319 69.67,1.45 C70.0100017,1.7366681 70.18,2.0633315 70.18,2.43 C70.18,2.7966685 70.0600012,3.1299985 69.82,3.43 C69.5799988,3.7300015 69.3066682,3.88 69,3.88 C68.6933318,3.88 68.5133336,3.7066684 68.46,3.36 C68.3533328,2.6399964 68.2200008,2.1000018 68.06,1.74 C67.8999992,1.3799982 67.6733348,1.0200018 67.38,0.66 L67.54,0.32 Z M75.28,8.34 C75.2266664,11.0200134 74.9100029,13.0966593 74.33,14.57 C73.7499971,16.0433407 72.4666766,17.5199926 70.48,19 L70.16,18.72 C70.9866708,17.919996 71.6399976,17.1633369 72.12,16.45 C72.6000024,15.7366631 72.9666654,14.9633375 73.22,14.13 C73.4733346,13.2966625 73.6299997,12.4500043 73.69,11.59 C73.7500003,10.7299957 73.78,9.600007 73.78,8.2 C73.78,6.799993 73.7533336,4.8133462 73.7,2.24 L75.3,3.22 C77.166676,2.7133308 79.0399906,1.9466718 80.92,0.92 L82.1,2.34 C82.2466674,2.5133342 82.32,2.6533328 82.32,2.76 C82.32,2.9200008 82.186668,2.9733336 81.92,2.92 C81.7999994,2.8933332 81.640001,2.88 81.44,2.88 C81.239999,2.88 80.8933358,2.9199996 80.4,3 L75.28,3.84 C75.3066668,5.3466742 75.3066668,6.6266614 75.28,7.68 L80.72,7.68 L81.92,6.24 L83.34,7.9 C83.4333338,8.0066672 83.48,8.1066662 83.48,8.2 C83.48,8.2933338 83.380001,8.34 83.18,8.34 L79.86,8.34 L79.86,14.4 C79.86,15.6133394 79.8666666,16.4666642 79.88,16.96 L79.92,18.18 C79.92,18.380001 79.7066688,18.6099987 79.28,18.87 C78.8533312,19.1300013 78.5766673,19.26 78.45,19.26 C78.3233327,19.26 78.26,19.1000016 78.26,18.78 L78.36,16.74 C78.4133336,15.8599956 78.44,14.9333382 78.44,13.96 L78.44,8.34 L75.28,8.34 Z M68.46,9.98 C67.393328,11.180006 66.226673,12.1866626 64.96,13 L64.66,12.64 C66.7800106,10.7333238 68.5599928,8.346681 70,5.48 L66.6,5.48 C66.0399972,5.48 65.5866684,5.5533326 65.24,5.7 L64.52,4.8 C65.0266692,4.866667 65.579997,4.9 66.18,4.9 L69.98,4.9 L70.82,3.96 L72.14,5.18 C72.2600006,5.3000006 72.32,5.4099995 72.32,5.51 C72.32,5.6100005 72.1933346,5.6799998 71.94,5.72 C71.6866654,5.7600002 71.4700009,5.9266652 71.29,6.22 C71.1099991,6.5133348 70.6266706,7.2066612 69.84,8.3 C70.8533384,8.7266688 71.5699979,9.1133316 71.99,9.46 C72.4100021,9.8066684 72.62,10.1533316 72.62,10.5 C72.62,10.8466684 72.5233343,11.1499987 72.33,11.41 C72.1366657,11.6700013 71.9200012,11.8 71.68,11.8 C71.4399988,11.8 71.2600006,11.5933354 71.14,11.18 C70.8333318,10.2866622 70.4000028,9.5266698 69.84,8.9 L69.84,14.24 C69.84,15.57334 69.8499999,16.5233305 69.87,17.09 C69.8900001,17.6566695 69.9,17.9666664 69.9,18.02 C69.9,18.2466678 69.6866688,18.4666656 69.26,18.68 C68.8333312,18.8933344 68.5633339,19 68.45,19 C68.3366661,19 68.28,18.8733346 68.28,18.62 L68.38,16.54 C68.4333336,15.6199954 68.46,14.7000046 68.46,13.78 L68.46,9.98 Z"></path>
                </g>
                <g id="a" transform="translate(73.000000, 5.000000)" font-size="20" font-family="STSongti-TC-Regular, Songti TC" font-weight="normal">
                    <text id="·">
                        <tspan x="0" y="21">·</tspan>
                    </text>
                </g>
            </g>
        </g>
    </g>
</svg>
