<?xml version="1.0" encoding="UTF-8" standalone="no"?>
<svg width="119px" height="29px" viewBox="0 0 119 29" version="1.1" xmlns="http://www.w3.org/2000/svg">
        <g id="Desktop-HD" transform="translate(-11.000000, -9.000000)">
            <g id="logo" transform="translate(6.000000, 4.000000)">
                <g id="the-star" transform="translate(18.120782, 18.740733) rotate(-109.000000) translate(-18.120782, -18.740733) translate(3.120782, 4.740733)">
                    <path class="doHover" d="M5.19271397,25.5379952 L5.15032854,25.7850477 C4.83516971,27.6220179 5.91772041,28.4083378 7.5683662,27.5408003 L13.6212029,24.3595831 C14.1715857,24.0703159 15.0635338,24.0703958 15.6137644,24.3595831 L21.6666014,27.5408004 C23.3172192,28.4083232 24.3998396,27.622261 24.0846391,25.7850485 L23.9915953,25.2427235 L15.6931828,21.0280961 C15.1389918,20.7466316 14.2442763,20.7538996 13.6947865,21.0443259 L5.19271397,25.5379952 L5.19271397,25.5379952 L5.19271397,25.5379952 Z" id="Path" fill-opacity="0.804772418" fill="#FFFFFF"></path>
                    <path class="doHover" d="M5.66259939,22.7991682 L6.28997301,19.1423877 L6.28997301,19.1423877 L13.6947865,15.2286616 C14.2442763,14.9382353 15.1389918,14.9309674 15.6931828,15.2124319 L22.9093732,18.8774165 C22.9128377,18.9353954 22.9191862,18.9919612 22.9285691,19.0466518 L23.5679209,22.7732477 L15.6432693,18.604849 C15.0929378,18.3153724 14.2011384,18.3151296 13.6509329,18.6040716 L5.66259939,22.7991682 L5.66259939,22.7991682 L5.66259939,22.7991682 Z" id="Path" fill-opacity="0.9" fill="#FFFFFF"></path>
                    <path class="doHover" d="M5.56835903,17.0329945 L0.793814242,12.3803504 C-0.541586447,11.0790443 -0.128055271,9.8067977 1.71739199,9.5387182 L8.48467097,8.55566721 C9.09984772,8.46630336 9.82149598,7.94225024 10.0966873,7.38481772 L13.1233173,1.25402168 C13.9485229,-0.41752957 15.2865549,-0.417308453 16.111652,1.25402243 L19.1382839,7.38481998 C19.4133993,7.94209858 20.1349537,8.46628142 20.7503004,8.55567028 L27.5175789,9.53872466 C29.3630574,9.80680963 29.776534,11.0790738 28.4411554,12.3803568 L23.6822729,17.0177331 L15.6432693,12.7891848 C15.0929378,12.4997082 14.2011384,12.4994653 13.6509329,12.7884073 L5.56835903,17.0329945 L5.56835903,17.0329945 L5.56835903,17.0329945 Z" id="path-1" fill="#FFFFFF"></path>
                </g>
                <text id="恋绘-星祈" font-family="STSongti-TC-Regular, Songti TC" font-size="20" font-weight="normal" fill="#FFFFFF">
                    <tspan x="39" y="26">恋绘 星祈</tspan>
                </text>
                <text id="a" font-family="STSongti-TC-Regular, Songti TC" font-size="20" font-weight="normal" fill="#FFFFFF">
                    <tspan x="73" y="26">·</tspan>
                </text>
            </g>
        </g>
</svg>
